<svg xmlns="http://www.w3.org/2000/svg" viewBox="0 0 24 24" fill="#3370FF"><path d="M3.806 7.854c1.997-2.218 4.944-3.781 7.575-4.067.12-.013.178.143.082.217C9.75 5.365 8.496 7.118 7.742 9.09c-.044.115.079.22.181.154 2.582-1.648 5.737-2.392 8.558-1.94.133.021.168.195.054.267-3.646 2.3-5.883 5.483-6.742 9.583-.024.112.106.19.196.117C14.146 13.965 20.5 12.5 23 13c-3.5 1.5-7.5 4.5-10.5 10-1.023-3.547-3.658-6.775-7.17-8.5-.158-.078-.335.07-.266.237l.695 1.677c.052.126-.038.264-.174.264H3.5C2.5 16.678 1 14.5 1 12c0-1.608.776-3.16 2.806-4.146z"/></svg>
